<?xml version="1.0" encoding="UTF-8"?>
<svg width="204px" height="97px" viewBox="0 0 204 97" version="1.1" xmlns="http://www.w3.org/2000/svg" xmlns:xlink="http://www.w3.org/1999/xlink">
    <title>Group 22</title>
    <defs>
        <polygon id="path-1" points="0.117695508 0.662946429 116.665829 0.662946429 116.665829 89.5222477 0.117695508 89.5222477"></polygon>
        <polygon id="path-3" points="0.0517917243 0.0849115809 119.321884 0.0849115809 119.321884 91 0.0517917243 91"></polygon>
        <polygon id="path-5" points="0 0.490990909 75.21344 0.490990909 75.21344 17.5304455 0 17.5304455"></polygon>
    </defs>
    <g id="MAIN" stroke="none" stroke-width="1" fill="none" fill-rule="evenodd">
        <g id="thank-you-page-1" transform="translate(-601.000000, -342.000000)">
            <g id="Group-6" transform="translate(544.000000, 342.000000)">
                <g id="Group-22" transform="translate(57.000000, 0.000000)">
                    <g id="Group-3" transform="translate(87.000000, 0.000000)">
                        <mask id="mask-2" fill="white">
                            <use xlink:href="#path-1"></use>
                        </mask>
                        <g id="Clip-2"></g>
                        <path d="M109.302602,73.2685982 L20.5621089,89.3769911 C15.6929856,90.2609196 11.0330199,87.0193125 10.151513,82.1384196 L0.262608904,27.3541339 C-0.618897945,22.4732411 2.61222534,17.7996696 7.47974589,16.9165446 L96.2218418,0.808151786 C101.089362,-0.0757767857 105.749328,3.16502679 106.630835,8.04591964 L116.521342,62.8310089 C117.402047,67.7119018 114.170123,72.3846696 109.302602,73.2685982" id="Fill-1" fill="#DDDDDD" mask="url(#mask-2)"></path>
                    </g>
                    <polygon id="Fill-4" fill="#221F20" points="98.533057 94 96 92.0294597 139.182553 37 199 73.4638003 197.321478 76.1939031 139.950268 41.2220147"></polygon>
                    <polyline id="Fill-6" fill="#F1F2F2" points="85 27.2149015 143.657177 63 186 9"></polyline>
                    <polygon id="Fill-8" fill="#221F20" points="144.818688 65 85 28.5303175 86.6744838 25.8056124 144.05282 60.7883662 185.472235 8 188 9.96606798"></polygon>
                    <g id="Group-12" transform="translate(82.000000, 6.000000)">
                        <mask id="mask-4" fill="white">
                            <use xlink:href="#path-3"></use>
                        </mask>
                        <g id="Clip-11"></g>
                        <path d="M9.39312,19.5240097 C5.33952,20.2624788 2.63872,24.1835319 3.37232,28.2640363 L12.96272,81.5972841 C13.69632,85.6769832 17.59152,88.3957088 21.64512,87.6572398 L109.98032,71.5607088 C114.03472,70.8222398 116.73552,66.9011867 116.00192,62.8206823 L106.41072,9.48823982 C105.67632,5.4077354 101.78192,2.68900973 97.72832,3.42747876 L9.39312,19.5240097 Z M110.55072,74.730408 L22.21472,90.8269389 C16.42512,91.8827 10.86192,87.9986912 9.81392,82.1706646 L0.22352,28.8382221 C-0.82448,23.0093903 3.03312,17.4100717 8.82272,16.3543106 L97.15792,0.257779646 C102.94832,-0.797176106 108.51072,3.08602743 109.55952,8.91405398 L119.14992,62.2473018 C120.19872,68.0753283 116.34112,73.6754522 110.55072,74.730408 L110.55072,74.730408 Z" id="Fill-10" fill="#221F20" mask="url(#mask-4)"></path>
                    </g>
                    <g id="Group-15" transform="translate(0.000000, 61.000000)">
                        <mask id="mask-6" fill="white">
                            <use xlink:href="#path-5"></use>
                        </mask>
                        <g id="Clip-14"></g>
                        <polygon id="Fill-13" fill="#221F20" mask="url(#mask-6)" points="75.21344 3.71135455 0.56944 17.5304455 -0.00016 14.3100818 74.64304 0.490990909"></polygon>
                    </g>
                    <line x1="78" y1="80" x2="36" y2="88" id="Fill-16" fill="#FFFFFF"></line>
                    <polygon id="Fill-18" fill="#221F20" points="79 82.2291169 36.5773009 90 36 86.7708831 78.4226991 79"></polygon>
                    <polygon id="Fill-20" fill="#221F20" points="72 47.076402 21.569341 56 21 52.9228164 71.4298594 44"></polygon>
                </g>
            </g>
        </g>
    </g>
</svg>