<?xml version="1.0" encoding="UTF-8"?>
<svg width="134px" height="24px" viewBox="0 0 134 24" version="1.1" xmlns="http://www.w3.org/2000/svg" xmlns:xlink="http://www.w3.org/1999/xlink">
    <title>FANUC Logo-CMYK (1)</title>
    <defs>
        <polygon id="path-1" points="0 0 134 0 134 24 0 24"></polygon>
    </defs>
    <g id="MAIN" stroke="none" stroke-width="1" fill="none" fill-rule="evenodd">
        <g id="4" transform="translate(-121.000000, -20.000000)">
            <g id="FANUC-Logo-CMYK-(1)" transform="translate(121.000000, 20.000000)">
                <mask id="mask-2" fill="white">
                    <use xlink:href="#path-1"></use>
                </mask>
                <g id="Clip-2"></g>
                <path d="M134,9.36418666 C134,7.20284602 131.060748,0 119.680242,0 C107.973544,0 105.467966,7.09404874 105.467966,11.8599625 C105.467966,18.2188888 108.978728,22.7515446 116.324987,23.7783454 C116.686105,23.8293574 117.056578,23.8712676 117.436822,23.9042878 C117.642016,23.9224912 117.849706,23.943023 118.061137,23.9510664 C118.372983,23.9631315 119.1237,24.00483 119.680242,23.9995383 C120.189382,23.9944583 120.729915,23.9802766 121.292069,23.9381547 C121.436766,23.9275713 121.583126,23.9155062 121.730733,23.9015361 C122.081663,23.8687276 122.439455,23.827029 122.801612,23.7760171 C127.948525,23.0504196 134,20.4081696 134,13.7442299 L126.485968,13.7442299 C126.485968,17.6812524 123.764176,19.89932 119.680242,19.89932 C115.595475,19.89932 112.927737,17.4020624 112.927737,11.8599625 C112.927737,6.59430089 115.761377,3.82272177 119.680242,3.82272177 C123.601393,3.82272177 126.485968,6.7602485 126.485968,9.36418666 L134,9.36418666 Z M76.8288648,0.883290031 L83.1994619,0.883290031 L83.1994619,14.9661886 C83.1994619,18.1232149 85.7017139,19.8417463 89.4066518,19.8417463 C93.1621087,19.8417463 95.6128021,18.1232149 95.6128021,14.9661886 L95.6128021,0.883290031 L102.093377,0.883290031 L102.093377,16.2948278 C102.093377,22.6145955 93.2706311,23.9993267 89.4066518,23.9993267 C85.4867481,23.9993267 76.8288648,22.8351534 76.8288648,14.9661886 L76.8288648,0.883290031 Z M47.2627496,0.883290031 L53.6884395,0.883290031 L66.2100942,16.2393708 L66.2100942,0.883290031 L72.6357841,0.883290031 L72.6357841,23.1698003 L65.2837038,23.1698003 L53.6884395,8.86570883 L53.6884395,23.1698003 L47.2627496,23.1698003 L47.2627496,0.883290031 Z M29.0758934,14.9661886 L29.0758934,14.9661886 L32.0163929,7.64756022 L35.1747687,14.9661886 L29.0758934,14.9661886 Z M35.1747687,0.883290031 L28.7494946,0.883290031 L18.950463,23.1698003 L25.3749056,23.1698003 L27.3339219,18.9540113 L36.6992797,18.9540113 L38.7691052,23.1698003 L45.3031096,23.1698003 L35.1747687,0.883290031 Z M0,0.883290031 L21.6710072,0.883290031 L21.6710072,5.54125323 L6.42506621,5.54125323 L6.42506621,8.86570883 L19.3845526,8.86570883 L19.3845526,13.5221903 L6.42506621,13.5221903 L6.42506621,23.1698003 L0,23.1698003 L0,0.883290031 L0,0.883290031 Z" id="Fill-1" fill="#D91433" mask="url(#mask-2)"></path>
            </g>
        </g>
    </g>
</svg>