<?xml version="1.0" encoding="UTF-8"?>
<svg width="166px" height="145px" viewBox="0 0 166 145" version="1.1" xmlns="http://www.w3.org/2000/svg" xmlns:xlink="http://www.w3.org/1999/xlink">
    <title>Group 24</title>
    <g id="MAIN" stroke="none" stroke-width="1" fill="none" fill-rule="evenodd">
        <g id="thank-you-page-2" transform="translate(-637.000000, -331.000000)">
            <g id="Group-5" transform="translate(544.000000, 331.000000)">
                <g id="Group-24" transform="translate(93.000000, 0.000000)">
                    <path d="M0,83.5 L166,83.5 L0,83.5 Z" id="Fill-1" fill="#000000"></path>
                    <polygon id="Fill-2" fill="#000000" points="0 85 166 85 166 82 0 82"></polygon>
                    <path d="M82.5,0 L82.5,133 L82.5,0 Z" id="Fill-3" fill="#000000"></path>
                    <polygon id="Fill-4" fill="#000000" points="81 133 84 133 84 0 81 0"></polygon>
                    <line x1="141" y1="24" x2="24" y2="142" id="Fill-5" fill="#000000"></line>
                    <polygon id="Fill-6" fill="#000000" points="25.0901181 143 23 140.892318 139.909143 23 142 25.1076821"></polygon>
                    <line x1="141" y1="142" x2="24" y2="24" id="Fill-7" fill="#000000"></line>
                    <polygon id="Fill-8" fill="#000000" points="139.909882 143 23 25.1076821 25.0908571 23 142 140.892318"></polygon>
                    <line x1="22" y1="108" x2="143" y2="58" id="Fill-9" fill="#000000"></line>
                    <polygon id="Fill-10" fill="#000000" points="22.1387787 110 21 107.263231 142.861221 57 144 59.73751"></polygon>
                    <path d="M108,144 L58,22 L108,144 Z" id="Fill-11" fill="#000000"></path>
                    <polygon id="Fill-12" fill="#000000" points="56 23.1387856 106.263231 145 109 143.861214 58.7367693 22"></polygon>
                    <path d="M58,144 L108,22 L58,144 Z" id="Fill-13" fill="#000000"></path>
                    <polygon id="Fill-14" fill="#000000" points="56 143.861214 58.7367693 145 109 23.1387856 106.263231 22"></polygon>
                    <line x1="143" y1="108" x2="22" y2="58" id="Fill-15" fill="#000000"></line>
                    <polygon id="Fill-16" fill="#000000" points="142.861221 110 21 59.73751 22.1387787 57 144 107.263231"></polygon>
                    <g id="Group-23" transform="translate(24.000000, 24.000000)">
                        <path d="M117.957995,58.8652277 C117.957995,91.2825736 91.6788755,117.562435 59.2607874,117.562435 C26.8441836,117.562435 0.564322013,91.2825736 0.564322013,58.8652277 C0.564322013,26.4478818 26.8441836,0.168762264 59.2607874,0.168762264 C91.6788755,0.168762264 117.957995,26.4478818 117.957995,58.8652277" id="Fill-17" fill="#FFFFFF"></path>
                        <path d="M29.9493648,63.541961 C28.4999686,62.0925648 28.4999686,59.7429547 29.9493648,58.2943006 L35.196283,53.0458981 C36.6456792,51.597244 38.9952893,51.597244 40.4446855,53.0458981 L56.6923208,69.2942755 L91.4941572,34.492439 C92.9428113,33.0437849 95.2924214,33.0437849 96.7418176,34.492439 L101.988736,39.7408415 C103.438132,41.1894956 103.438132,43.5391057 101.988736,44.9885019 L59.3157799,87.6614579 C57.8671258,89.1101119 55.5175157,89.1101119 54.0688616,87.6614579 L29.9493648,63.541961 Z" id="Fill-19" fill="#DDDDDD"></path>
                        <path d="M24.8225245,63.089405 C23.3731283,61.6400088 23.3731283,59.2903987 24.8225245,57.8417447 L30.0694428,52.5933421 C31.518839,51.1446881 33.8684491,51.1446881 35.3178453,52.5933421 L51.5654805,68.8417195 L86.367317,34.039883 C87.8159711,32.5912289 90.1655811,32.5912289 91.6149774,34.039883 L96.8618956,39.2882855 C98.3112918,40.7369396 98.3112918,43.0865497 96.8618956,44.5359459 L54.1889396,87.2089019 C52.7402855,88.6582981 50.3906755,88.6582981 48.9420214,87.2089019 L24.8225245,63.089405 Z" id="Stroke-21" stroke="#000000" stroke-width="4"></path>
                    </g>
                </g>
            </g>
        </g>
    </g>
</svg>